<svg width="21" height="20" viewBox="0 0 21 20" fill="none" xmlns="http://www.w3.org/2000/svg">
<path d="M10.05 18.6366H9.99521C9.77045 18.6223 9.45904 18.5393 9.06686 18.3643C8.65157 18.1791 8.17606 17.9045 7.66344 17.5484C6.63839 16.8363 5.49437 15.8188 4.4249 14.6022C2.27185 12.1531 0.5 8.98988 0.5 5.97861C0.5 3.16058 2.83037 0.724609 5.403 0.724609C7.44502 0.724609 8.85469 2.13548 9.64122 3.24395L10.0491 3.81884L10.4569 3.24382C11.2415 2.1373 12.6511 0.724609 14.694 0.724609C17.2686 0.724609 19.598 3.16053 19.598 5.97961C19.598 8.98982 17.826 12.1525 15.6726 14.6013C14.6031 15.8177 13.4589 16.835 12.4338 17.5469C11.9211 17.903 11.4456 18.1775 11.0303 18.3626C10.6106 18.5497 10.2834 18.6316 10.056 18.6366H10.05Z" stroke="white"/>
</svg>
